<svg width="72" height="72" viewBox="0 0 72 72" fill="none" xmlns="http://www.w3.org/2000/svg">
<path d="M13.5 31.5C13.5 29.0147 11.4853 27 9 27C6.51472 27 4.5 29.0147 4.5 31.5V45C4.5 47.4853 6.51472 49.5 9 49.5C11.4853 49.5 13.5 47.4853 13.5 45V31.5Z" fill="#8BC34A"/>
<path d="M67.5 31.5C67.5 29.0147 65.4853 27 63 27C60.5147 27 58.5 29.0147 58.5 31.5V45C58.5 47.4853 60.5147 49.5 63 49.5C65.4853 49.5 67.5 47.4853 67.5 45V31.5Z" fill="#8BC34A"/>
<path d="M18 27.0004H54V54.0004H18V27.0004ZM22.5 54.0004H31.5V63.0004C31.5 64.1939 31.0259 65.3385 30.182 66.1824C29.3381 67.0263 28.1935 67.5004 27 67.5004C25.8065 67.5004 24.6619 67.0263 23.818 66.1824C22.9741 65.3385 22.5 64.1939 22.5 63.0004V54.0004ZM40.5 54.0004H49.5V63.0004C49.5 64.1939 49.0259 65.3385 48.182 66.1824C47.3381 67.0263 46.1935 67.5004 45 67.5004C43.8065 67.5004 42.6619 67.0263 41.818 66.1824C40.9741 65.3385 40.5 64.1939 40.5 63.0004V54.0004ZM48.4763 9.5427L53.2463 4.7727C53.6561 4.34834 53.8829 3.77999 53.8778 3.19004C53.8726 2.6001 53.636 2.03577 53.2188 1.6186C52.8017 1.20144 52.2373 0.964805 51.6474 0.959679C51.0575 0.954552 50.4891 1.18134 50.0648 1.5912L44.8313 6.8247C42.1375 5.30045 39.0951 4.49936 36 4.49936C32.9049 4.49936 29.8625 5.30045 27.1688 6.8247L21.9375 1.5912C21.7299 1.3763 21.4817 1.20489 21.2072 1.08697C20.9327 0.969047 20.6374 0.906978 20.3387 0.904382C20.0399 0.901786 19.7436 0.958715 19.4671 1.07185C19.1906 1.18498 18.9394 1.35205 18.7281 1.56331C18.5169 1.77457 18.3498 2.02578 18.2367 2.3023C18.1235 2.57882 18.0666 2.87509 18.0692 3.17385C18.0718 3.4726 18.1339 3.76785 18.2518 4.04236C18.3697 4.31686 18.5411 4.56514 18.756 4.7727L23.526 9.5427C21.7779 11.2177 20.3871 13.2293 19.4374 15.4562C18.4876 17.6832 17.9987 20.0794 18 22.5004H54C54.0016 20.0796 53.513 17.6835 52.5637 15.4565C51.6143 13.2295 50.2239 11.2179 48.4763 9.5427ZM31.5 18.0004H27V13.5004H31.5V18.0004ZM45 18.0004H40.5V13.5004H45V18.0004Z" fill="#8BC34A"/>
</svg>
