<svg width="72" height="72" viewBox="0 0 72 72" fill="none" xmlns="http://www.w3.org/2000/svg">
<path d="M51.15 60.84C48.21 63.69 45 63.24 41.91 61.89C38.64 60.51 35.64 60.45 32.19 61.89C27.87 63.75 25.59 63.21 23.01 60.84C8.37 45.75 10.53 22.77 27.15 21.93C31.2 22.14 34.02 24.15 36.39 24.33C39.93 23.61 43.32 21.54 47.1 21.81C51.63 22.17 55.05 23.97 57.3 27.21C47.94 32.82 50.16 45.15 58.74 48.6C57.03 53.1 54.81 57.57 51.12 60.87L51.15 60.84ZM36.09 21.75C35.64 15.06 41.07 9.54 47.31 9C48.18 16.74 40.29 22.5 36.09 21.75Z" fill="#1D0B0B"/>
</svg>
