<svg width="72" height="72" viewBox="0 0 72 72" fill="none" xmlns="http://www.w3.org/2000/svg">
<path fill-rule="evenodd" clip-rule="evenodd" d="M30.0831 14H42.4191C47.9331 14 52.3011 14 55.7181 14.3825C59.2341 14.7775 62.0811 15.6075 64.3281 17.4775C66.5721 19.35 67.5681 21.7225 68.0421 24.6525C68.3121 26.335 68.4231 28.2925 68.4681 30.56C68.5053 30.7502 68.5094 30.9439 68.4801 31.135C68.4981 32.5483 68.5051 34.0817 68.5011 35.735V36.015C68.5011 40.61 68.5011 44.25 68.0421 47.0975C67.5681 50.0275 66.5721 52.4 64.3281 54.2725C62.0811 56.1425 59.2341 56.9725 55.7181 57.3675C52.2981 57.75 47.9331 57.75 42.4191 57.75H30.0831C24.5691 57.75 20.2011 57.75 16.7841 57.3675C13.2681 56.9725 10.4211 56.1425 8.17409 54.2725C5.93009 52.4 4.93409 50.0275 4.46009 47.0975C4.00109 44.2475 4.00109 40.61 4.00109 36.015V35.735C3.99709 34.0817 4.00409 32.5483 4.02209 31.135C3.99184 30.944 3.99487 30.7503 4.03109 30.56C4.07909 28.2925 4.19009 26.335 4.46009 24.6525C4.93409 21.7225 5.93009 19.35 8.17409 17.4775C10.4211 15.6075 13.2681 14.7775 16.7841 14.3825C20.2041 14 24.5691 14 30.0831 14ZM8.50709 32.75C8.50309 33.72 8.50109 34.7617 8.50109 35.875C8.50109 40.6425 8.50709 44.03 8.92109 46.6C9.32609 49.1125 10.0881 50.5625 11.3571 51.62C12.6261 52.6775 14.3661 53.3125 17.3841 53.65C20.4681 53.995 24.5301 54 30.2511 54H42.2511C47.9721 54 52.0371 53.995 55.1211 53.65C58.1361 53.3125 59.8761 52.6775 61.1451 51.62C62.4141 50.5625 63.1761 49.1125 63.5811 46.5975C63.9951 44.0275 64.0011 40.6425 64.0011 35.875C64.0011 34.7617 63.9991 33.72 63.9951 32.75H8.50709ZM63.9231 29H8.57909C8.63909 27.5325 8.74109 26.265 8.92109 25.15C9.32609 22.6375 10.0881 21.1875 11.3571 20.13C12.6261 19.0725 14.3661 18.4375 17.3841 18.1C20.4681 17.755 24.5301 17.75 30.2511 17.75H42.2511C47.9721 17.75 52.0371 17.755 55.1211 18.1C58.1361 18.4375 59.8761 19.0725 61.1451 20.13C62.4141 21.1875 63.1761 22.6375 63.5811 25.1525C63.7611 26.265 63.8631 27.5325 63.9231 29ZM16.0011 45.875C16.0011 45.3777 16.2381 44.9008 16.6601 44.5492C17.0821 44.1975 17.6544 44 18.2511 44H30.2511C30.8478 44 31.4201 44.1975 31.8421 44.5492C32.264 44.9008 32.5011 45.3777 32.5011 45.875C32.5011 46.3723 32.264 46.8492 31.8421 47.2008C31.4201 47.5525 30.8478 47.75 30.2511 47.75H18.2511C17.6544 47.75 17.0821 47.5525 16.6601 47.2008C16.2381 46.8492 16.0011 46.3723 16.0011 45.875ZM35.5011 45.875C35.5011 45.3777 35.7381 44.9008 36.1601 44.5492C36.5821 44.1975 37.1544 44 37.7511 44H42.2511C42.8478 44 43.4201 44.1975 43.8421 44.5492C44.264 44.9008 44.5011 45.3777 44.5011 45.875C44.5011 46.3723 44.264 46.8492 43.8421 47.2008C43.4201 47.5525 42.8478 47.75 42.2511 47.75H37.7511C37.1544 47.75 36.5821 47.5525 36.1601 47.2008C35.7381 46.8492 35.5011 46.3723 35.5011 45.875Z" fill="black"/>
</svg>
