<svg width="72" height="72" viewBox="0 0 72 72" fill="none" xmlns="http://www.w3.org/2000/svg">
<path d="M58.1849 15.6657C56.9756 12.8082 54.3656 9.10132 51.6712 7.45319C45.4049 3.60007 37.4399 2.85757 30.3356 4.21882C19.1756 6.35632 8.71868 13.5732 3.4818 23.7432C-0.225073 30.9432 -0.990073 41.9176 3.94868 48.8251C7.1718 53.3307 13.5674 55.0351 18.6412 52.9201C22.0893 51.4857 24.2268 48.2907 27.2081 46.1982C31.0781 43.4757 35.2743 44.2463 39.7631 44.0719C52.6499 43.5826 63.1856 27.5401 58.1849 15.6657ZM39.2343 34.2507C38.2106 34.6444 36.8662 34.8751 35.7637 34.7119C34.6499 34.5376 33.4687 33.7219 32.8781 32.7544C30.8249 29.4244 34.2337 25.5713 37.3837 24.7332C38.9474 24.3169 41.2424 24.5757 42.4855 25.6501C45.7087 28.4344 42.1931 33.1032 39.2343 34.2507Z" fill="#F79329"/>
<path d="M24.4518 12.1442C25.335 11.4354 26.4712 10.9911 27.5343 10.9011C29.475 10.7323 30.8475 12.4592 30.7687 14.3717C30.6618 16.7904 28.0068 17.9661 25.7906 17.8704C24.0693 17.7973 22.6518 16.2448 22.9387 14.5686C23.1131 13.5898 23.6868 12.7686 24.4518 12.1442Z" fill="#ED6C30"/>
<path d="M9.27567 30.1946C9.94504 27.5002 13.1457 25.7958 15.4238 27.7196C17.595 29.5477 16.5769 33.1702 14.2763 34.4977C12.7463 35.3808 10.4738 34.7902 9.59067 33.1533C9.10129 32.2477 9.02817 31.1846 9.27567 30.1946Z" fill="#BDCF46"/>
<path d="M16.1606 39.3861C17.4374 41.8049 16.5881 45.5343 13.4774 45.793C10.3668 46.0518 8.62869 42.3899 9.43307 39.7124C10.2374 37.0461 13.5337 36.6074 15.3899 38.3624C15.7049 38.6605 15.9637 39.0036 16.1606 39.3861Z" fill="#006CA2"/>
<path d="M21.5325 22.1967C20.6944 23.7379 18.7425 25.0823 16.9369 24.8573C14.67 24.576 13.7813 21.876 14.7656 19.9467C16.1156 17.3029 20.3456 16.2454 21.7631 19.4967C22.1513 20.391 21.9994 21.3473 21.5325 22.1967Z" fill="#FCC21B"/>
<path d="M41.3775 49.8603C38.5369 49.7478 35.5163 51.0415 33.6713 53.4434C31.7588 55.9297 31.815 59.1134 31.7363 62.0947C31.6913 63.7147 31.9613 65.9759 30.7857 67.2922C30.2569 67.8828 29.7 68.0065 28.98 68.0965C28.6988 68.1303 27.3263 67.9165 27.8438 68.704C28.8282 70.2059 32.49 70.5884 34.0594 70.6559C38.2782 70.8472 42.4294 68.9797 45.2138 65.824C45.5007 65.4922 45.7763 65.149 46.035 64.7947C48.1107 61.9372 49.3257 57.8872 47.9925 54.484C46.7888 51.4184 44.1675 49.9672 41.3775 49.8603Z" fill="white"/>
<mask id="mask0_7_85" style="mask-type:luminance" maskUnits="userSpaceOnUse" x="27" y="49" width="22" height="22">
<path d="M41.3775 49.8603C38.5369 49.7478 35.5163 51.0415 33.6713 53.4434C31.7588 55.9297 31.815 59.1134 31.7363 62.0947C31.6913 63.7147 31.9613 65.9759 30.7857 67.2922C30.2569 67.8828 29.7 68.0065 28.98 68.0965C28.6988 68.1303 27.3263 67.9165 27.8438 68.704C28.8282 70.2059 32.49 70.5884 34.0594 70.6559C38.2782 70.8472 42.4294 68.9797 45.2138 65.824C45.5007 65.4922 45.7763 65.149 46.035 64.7947C48.1107 61.9372 49.3257 57.8872 47.9925 54.484C46.7888 51.4184 44.1675 49.9672 41.3775 49.8603Z" fill="white"/>
</mask>
<g mask="url(#mask0_7_85)">
<path d="M36.5906 58.2926C36.6525 58.4276 36.7087 58.602 36.7369 58.8213C36.9112 60.1601 37.935 60.4526 39.15 60.4526C40.3819 60.4526 41.9175 60.1826 41.9175 61.8363C41.9119 62.5451 41.5744 63.0682 42.2831 63.5013C43.3519 64.1538 45.3994 64.002 46.4344 63.3213C47.0756 62.8995 47.9756 62.5226 47.5706 63.7207C47.3344 64.4126 46.8731 65.0482 46.5356 65.7007C46.1644 66.4151 45.6975 66.9832 45.135 67.557C44.7244 67.9788 44.4431 68.4851 43.9706 68.8451C42.7612 69.762 41.1862 70.0488 39.7744 70.5101C37.8844 71.1288 36.0787 72.2313 34.0537 71.6632C31.9106 71.0613 29.5762 71.3032 27.4669 70.6113C26.4262 70.2682 25.7794 69.6382 25.9369 68.5188C26.0775 67.557 26.7356 67.197 27.6131 67.0057C28.6031 66.7863 29.4131 66.522 29.8687 65.532C30.2625 64.6938 29.9925 63.4732 29.9362 62.5845C29.8575 61.3751 29.7225 60.0982 30.0319 58.9113C30.2906 57.9326 30.5775 56.9538 31.005 56.0313C31.2019 55.5982 31.41 55.0695 31.725 54.7095C32.2144 54.147 32.8162 53.8938 33.48 53.5957C33.6881 54.1301 33.2437 54.9795 33.165 55.5195C33.0356 56.4476 33.0637 57.4432 34.0087 57.8201C34.9256 58.1688 36.1462 57.3588 36.5906 58.2926Z" fill="#ED6C30"/>
</g>
<path d="M51.7107 34.1043C54.9 30.4368 57.2513 26.0549 60.1257 22.1287C61.8919 19.7212 63.5175 17.1787 65.16 14.698C66.2007 13.1287 67.6969 10.378 69.9019 10.4174C70.2844 10.423 70.6332 10.5862 70.9425 10.8055C71.6232 11.2893 71.6175 12.4537 71.3925 13.1737C70.4982 16.0705 68.8219 18.8437 67.4157 21.5212C66.8813 22.5449 66.3357 23.5687 65.7675 24.5755C64.1082 27.5287 62.3757 30.4424 60.8457 33.4687C60.2494 34.6499 59.6869 35.8424 59.175 37.0574C58.8544 37.8112 58.3594 38.4524 58.1625 39.2399C57.96 40.0499 56.1319 37.7718 56.0194 37.5918C55.6032 36.8999 55.2207 36.5343 54.4782 36.2868C53.9438 36.1124 51.0807 35.7018 51.3113 34.7905C51.3732 34.5543 51.5194 34.3237 51.7107 34.1043Z" fill="#855C52"/>
<path d="M57.6787 38.4525C57.1387 37.3219 56.0925 36.6862 55.1756 36.1237C54.9393 35.9775 54.7031 35.8369 54.4893 35.6906C53.0381 34.695 51.795 34.4531 50.7937 34.9312C49.2918 35.6512 48.2287 37.5525 47.3681 39.0825C47.1318 39.4987 46.9181 39.8812 46.7212 40.1962C45.1068 42.7106 43.5487 44.64 40.7925 46.4962L40.5562 46.6481C39.9318 47.0475 39.0768 47.5987 39.0093 48.5944C38.9812 49.0162 39.0993 49.6519 39.8362 50.2762C40.6406 50.9569 41.5237 51.3731 42.3787 51.7725C42.6825 51.9131 42.9918 52.0594 43.29 52.2169C44.2743 52.7344 45.1687 53.415 46.1193 54.1406L46.6818 54.5625C46.8281 54.6694 46.9743 54.8156 47.1318 54.9562C47.5706 55.3669 48.1162 55.8844 48.825 56.0812C49.0668 56.1487 49.2806 56.1825 49.4718 56.1825C50.2368 56.1825 50.6193 55.71 50.8275 55.4569L50.9118 55.3556C51.7331 54.3937 52.1381 53.1056 52.4925 51.9694C52.6612 51.4181 52.8243 50.895 53.0156 50.4562C53.3193 49.7644 53.6062 49.0669 53.8931 48.3694C54.5231 46.8281 55.1193 45.3712 55.89 43.9819C56.07 43.65 56.3343 43.3069 56.6156 42.9469C57.4425 41.8556 58.5843 40.3594 57.6787 38.4525Z" fill="#78A3AD"/>
<mask id="mask1_7_85" style="mask-type:luminance" maskUnits="userSpaceOnUse" x="39" y="34" width="20" height="23">
<path d="M57.6787 38.4525C57.1387 37.3219 56.0925 36.6862 55.1756 36.1237C54.9393 35.9775 54.7031 35.8369 54.4893 35.6906C53.0381 34.695 51.795 34.4531 50.7937 34.9312C49.2918 35.6512 48.2287 37.5525 47.3681 39.0825C47.1318 39.4987 46.9181 39.8812 46.7212 40.1962C45.1068 42.7106 43.5487 44.64 40.7925 46.4962L40.5562 46.6481C39.9318 47.0475 39.0768 47.5987 39.0093 48.5944C38.9812 49.0162 39.0993 49.6519 39.8362 50.2762C40.6406 50.9569 41.5237 51.3731 42.3787 51.7725C42.6825 51.9131 42.9918 52.0594 43.29 52.2169C44.2743 52.7344 45.1687 53.415 46.1193 54.1406L46.6818 54.5625C46.8281 54.6694 46.9743 54.8156 47.1318 54.9562C47.5706 55.3669 48.1162 55.8844 48.825 56.0812C49.0668 56.1487 49.2806 56.1825 49.4718 56.1825C50.2368 56.1825 50.6193 55.71 50.8275 55.4569L50.9118 55.3556C51.7331 54.3937 52.1381 53.1056 52.4925 51.9694C52.6612 51.4181 52.8243 50.895 53.0156 50.4562C53.3193 49.7644 53.6062 49.0669 53.8931 48.3694C54.5231 46.8281 55.1193 45.3712 55.89 43.9819C56.07 43.65 56.3343 43.3069 56.6156 42.9469C57.4425 41.8556 58.5843 40.3594 57.6787 38.4525Z" fill="white"/>
</mask>
<g mask="url(#mask1_7_85)">
<path d="M52.7117 55.6089C52.3067 55.6089 51.913 55.4121 51.6598 55.0521C51.3617 54.6077 51.1817 54.1689 51.0186 53.7808C50.8723 53.4264 50.7486 53.1227 50.563 52.8808C48.8361 50.6533 46.7436 49.1121 43.3348 47.5539C42.3167 47.0871 41.3886 46.8564 40.6011 46.8564C39.898 46.8564 39.3298 46.2883 39.3298 45.5908C39.3298 44.8933 39.898 44.3252 40.6011 44.3252C41.7542 44.3252 43.0311 44.6402 44.3867 45.2533C47.0361 46.4627 50.0848 48.1333 52.5655 51.3339C52.9648 51.8458 53.1786 52.3633 53.3642 52.8246C53.4936 53.1396 53.6061 53.4096 53.7636 53.6402C54.1573 54.2196 53.9998 55.0071 53.4261 55.3952C53.2011 55.5358 52.9536 55.6089 52.7117 55.6089Z" fill="#2F2F2F"/>
</g>
</svg>
